<?xml version="1.0" encoding="UTF-8"?>
<svg xmlns="http://www.w3.org/2000/svg" xmlns:xlink="http://www.w3.org/1999/xlink" width="771.7pt" height="152.7pt" viewBox="0 0 771.7 152.7" version="1.1">
<defs>
<clipPath id="clip1">
  <path d="M 210 0 L 771.699219 0 L 771.699219 152.699219 L 210 152.699219 Z M 210 0 "/>
</clipPath>
<clipPath id="clip2">
  <path d="M 0 0 L 202 0 L 202 152.699219 L 0 152.699219 Z M 0 0 "/>
</clipPath>
<clipPath id="clip3">
  <path d="M 516 52 L 591 52 L 591 152.699219 L 516 152.699219 Z M 516 52 "/>
</clipPath>
<clipPath id="clip4">
  <path d="M 436 52 L 511 52 L 511 152.699219 L 436 152.699219 Z M 436 52 "/>
</clipPath>
</defs>
<g id="surface1">
<g clip-path="url(#clip1)" clip-rule="nonzero">
<path style=" stroke:none;fill-rule:evenodd;fill:rgb(100%,86.71875%,18.821716%);fill-opacity:1;" d="M 765.609375 -0.0976563 L 216.648438 -0.0976563 C 213.066406 -0.0976563 210.464844 2.835938 210.464844 6.09375 L 210.464844 146.507813 C 210.464844 150.09375 213.390625 152.699219 216.648438 152.699219 L 765.609375 152.699219 C 769.191406 152.699219 771.796875 149.765625 771.796875 146.507813 L 771.796875 6.09375 C 771.796875 2.507813 769.191406 -0.0976563 765.609375 -0.0976563 Z M 765.609375 -0.0976563 "/>
</g>
<g clip-path="url(#clip2)" clip-rule="nonzero">
<path style=" stroke:none;fill-rule:evenodd;fill:rgb(0.784302%,39.988708%,68.164063%);fill-opacity:1;" d="M 194.820313 -0.0976563 L 6.1875 -0.0976563 C 2.605469 -0.0976563 0 2.507813 0 6.09375 L 0 146.507813 C 0 150.09375 2.929688 152.699219 6.1875 152.699219 L 194.820313 152.699219 C 198.40625 152.699219 201.011719 149.765625 201.011719 146.507813 L 201.011719 6.09375 C 201.339844 2.507813 198.40625 -0.0976563 194.820313 -0.0976563 Z M 194.820313 -0.0976563 "/>
</g>
<path style=" stroke:none;fill-rule:evenodd;fill:rgb(0.784302%,39.988708%,68.164063%);fill-opacity:1;" d="M 393.878906 52.355469 C 373.679688 52.355469 357.066406 66.691406 357.066406 87.867188 C 357.066406 109.042969 373.679688 123.378906 393.878906 123.378906 C 414.078125 123.378906 430.695313 109.042969 430.695313 87.867188 C 430.695313 67.015625 414.078125 52.355469 393.878906 52.355469 Z M 394.210938 109.042969 C 393.878906 109.042969 393.878906 109.042969 393.878906 109.042969 C 381.503906 109.042969 373.03125 99.59375 373.03125 88.191406 C 373.03125 76.789063 381.503906 67.339844 393.878906 67.339844 C 393.878906 67.339844 393.878906 67.339844 394.210938 67.339844 C 394.210938 67.339844 394.210938 67.339844 394.53125 67.339844 C 406.910156 67.339844 415.382813 76.789063 415.382813 88.191406 C 415.058594 99.59375 406.589844 109.042969 394.210938 109.042969 Z M 394.210938 109.042969 "/>
<path style=" stroke:none;fill-rule:evenodd;fill:rgb(0.784302%,39.988708%,68.164063%);fill-opacity:1;" d="M 341.753906 96.335938 C 335.5625 103.503906 326.441406 108.390625 316.34375 108.390625 C 298.097656 108.390625 283.109375 93.40625 283.109375 75.160156 C 283.109375 56.917969 298.097656 41.929688 316.34375 41.929688 C 326.441406 41.929688 335.5625 46.492188 341.429688 53.660156 L 352.835938 43.558594 C 343.710938 33.132813 330.351563 26.617188 315.691406 26.617188 C 288.648438 26.617188 266.496094 48.121094 266.496094 74.835938 C 266.496094 101.550781 288.648438 123.378906 315.691406 123.378906 C 330.675781 123.378906 344.035156 116.863281 353.15625 106.4375 Z M 341.753906 96.335938 "/>
<g clip-path="url(#clip3)" clip-rule="nonzero">
<path style=" stroke:none;fill-rule:evenodd;fill:rgb(0.784302%,39.988708%,68.164063%);fill-opacity:1;" d="M 553.191406 52.355469 C 532.992188 52.355469 516.378906 67.015625 516.378906 87.867188 C 516.378906 108.71875 516.378906 152.375 516.378906 152.375 L 532.339844 152.375 L 532.339844 117.511719 C 538.210938 121.421875 545.699219 123.378906 553.191406 123.378906 C 573.390625 123.378906 590.007813 108.71875 590.007813 87.867188 C 590.007813 67.015625 573.390625 52.355469 553.191406 52.355469 Z M 553.519531 109.042969 C 553.191406 109.042969 553.191406 109.042969 553.519531 109.042969 C 553.191406 109.042969 553.191406 109.042969 553.191406 109.042969 C 540.8125 109.042969 532.339844 99.59375 532.339844 88.191406 C 532.339844 76.789063 540.8125 67.339844 553.191406 67.339844 C 553.191406 67.339844 553.191406 67.339844 553.519531 67.339844 C 553.84375 67.339844 553.519531 67.339844 553.84375 67.339844 C 566.222656 67.339844 574.695313 76.789063 574.695313 88.191406 C 574.046875 99.59375 565.570313 109.042969 553.519531 109.042969 Z M 553.519531 109.042969 "/>
</g>
<g clip-path="url(#clip4)" clip-rule="nonzero">
<path style=" stroke:none;fill-rule:evenodd;fill:rgb(0.784302%,39.988708%,68.164063%);fill-opacity:1;" d="M 473.699219 52.355469 C 453.503906 52.355469 436.882813 67.015625 436.882813 87.867188 C 436.882813 108.71875 436.882813 152.375 436.882813 152.375 L 452.847656 152.375 L 452.847656 117.511719 C 458.714844 121.421875 466.210938 123.378906 473.699219 123.378906 C 493.898438 123.378906 510.511719 108.71875 510.511719 87.867188 C 510.511719 67.015625 493.574219 52.355469 473.699219 52.355469 Z M 473.699219 109.042969 C 473.378906 109.042969 473.378906 109.042969 473.378906 109.042969 C 460.992188 109.042969 452.523438 99.59375 452.523438 88.191406 C 452.523438 76.789063 460.992188 67.339844 473.378906 67.339844 C 473.378906 67.339844 473.378906 67.339844 473.699219 67.339844 C 474.023438 67.339844 473.699219 67.339844 474.023438 67.339844 C 486.40625 67.339844 494.878906 76.789063 494.878906 88.191406 C 494.550781 99.59375 486.078125 109.042969 473.699219 109.042969 Z M 473.699219 109.042969 "/>
</g>
<path style=" stroke:none;fill-rule:evenodd;fill:rgb(0.784302%,39.988708%,68.164063%);fill-opacity:1;" d="M 628.128906 52.355469 C 609.554688 52.355469 593.921875 67.015625 593.921875 87.867188 C 593.921875 109.042969 609.554688 123.378906 628.128906 123.378906 C 639.203125 123.378906 651.253906 119.792969 657.445313 110.996094 L 647.996094 101.550781 C 643.761719 106.109375 637.574219 109.042969 630.078125 109.042969 C 617.699219 109.042969 609.554688 101.875 609.554688 91.449219 L 662.007813 91.449219 C 662.007813 90.148438 662.335938 88.84375 662.335938 87.214844 C 662.335938 67.015625 648.976563 52.355469 628.128906 52.355469 Z M 609.878906 81.023438 C 609.878906 74.835938 618.023438 66.039063 629.101563 66.039063 C 636.269531 66.039063 646.046875 71.578125 646.046875 81.023438 Z M 609.878906 81.023438 "/>
<path style=" stroke:none;fill-rule:evenodd;fill:rgb(0.784302%,39.988708%,68.164063%);fill-opacity:1;" d="M 684.160156 87.867188 L 684.160156 27.921875 L 668.195313 27.921875 L 668.195313 87.867188 C 668.195313 108.71875 684.484375 123.050781 704.359375 123.378906 L 704.359375 108.71875 C 692.304688 108.71875 684.160156 99.269531 684.160156 87.867188 Z M 684.160156 87.867188 "/>
<path style=" stroke:none;fill-rule:evenodd;fill:rgb(100%,86.71875%,18.821716%);fill-opacity:1;" d="M 179.839844 75.8125 L 78.515625 75.8125 C 78.839844 74.183594 79.167969 72.554688 79.167969 70.597656 C 79.167969 60.824219 71.347656 53.007813 61.578125 53.007813 C 53.101563 53.007813 46.261719 58.871094 44.304688 66.691406 C 42.675781 66.039063 41.046875 66.039063 39.09375 66.039063 C 29.320313 66.039063 21.503906 73.859375 21.503906 83.632813 C 21.503906 93.40625 29.320313 101.222656 39.09375 101.222656 C 40.722656 101.222656 42.679688 100.898438 44.304688 100.570313 C 46.261719 108.390625 53.101563 114.253906 61.578125 114.253906 C 71.347656 114.253906 79.167969 106.4375 79.167969 96.664063 C 79.167969 95.035156 78.839844 93.078125 78.515625 91.449219 L 147.257813 91.449219 L 147.257813 112.625 L 155.402344 112.625 L 155.402344 101.875 L 163.21875 101.875 L 163.21875 112.625 L 171.363281 112.625 L 171.363281 91.449219 L 179.507813 91.449219 L 179.507813 75.8125 Z M 61.578125 62.78125 C 65.808594 62.78125 69.390625 66.363281 69.390625 70.597656 C 69.390625 74.835938 65.808594 78.417969 61.578125 78.417969 C 57.339844 78.417969 53.753906 74.835938 53.753906 70.597656 C 53.429688 66.363281 57.011719 62.78125 61.578125 62.78125 Z M 31.273438 83.632813 C 31.273438 79.394531 34.859375 75.8125 39.09375 75.8125 C 43.332031 75.8125 46.914063 79.394531 46.914063 83.632813 C 46.914063 87.867188 43.332031 91.449219 39.09375 91.449219 C 34.859375 91.449219 31.273438 87.867188 31.273438 83.632813 Z M 61.578125 104.15625 C 57.339844 104.15625 53.753906 100.574219 53.753906 96.335938 C 53.753906 92.101563 57.339844 88.519531 61.578125 88.519531 C 65.808594 88.519531 69.390625 92.101563 69.390625 96.335938 C 69.390625 100.574219 65.808594 104.15625 61.578125 104.15625 Z M 61.578125 104.15625 "/>
<path style=" stroke:none;fill-rule:evenodd;fill:rgb(0.784302%,39.988708%,68.164063%);fill-opacity:1;" d="M 723.90625 116.210938 C 723.90625 120.445313 720.648438 123.703125 716.414063 123.703125 C 712.179688 123.703125 708.921875 120.445313 708.921875 116.210938 C 708.921875 112.300781 712.179688 109.042969 716.414063 109.042969 C 720.648438 109.042969 723.90625 112.300781 723.90625 116.210938 Z M 710.878906 116.210938 C 710.878906 119.46875 713.15625 122.074219 716.414063 122.074219 C 719.671875 122.074219 721.953125 119.46875 721.953125 116.210938 C 721.953125 112.953125 719.671875 110.347656 716.414063 110.347656 C 713.15625 110.347656 710.878906 113.277344 710.878906 116.210938 Z M 715.4375 120.121094 L 713.808594 120.121094 L 713.808594 112.953125 C 714.460938 112.953125 715.4375 112.625 716.738281 112.625 C 718.046875 112.625 718.695313 112.953125 719.347656 113.277344 C 719.671875 113.605469 719.996094 114.253906 719.996094 114.90625 C 719.996094 115.558594 719.347656 116.210938 718.367188 116.535156 C 719.019531 116.863281 719.347656 117.1875 719.671875 118.164063 C 719.996094 119.144531 719.996094 119.792969 720.324219 120.121094 L 718.367188 120.121094 C 718.046875 119.792969 718.046875 119.140625 717.714844 118.492188 C 717.714844 117.839844 717.066406 117.1875 716.089844 117.1875 L 715.4375 117.1875 Z M 715.4375 115.882813 L 716.089844 115.882813 C 717.066406 115.882813 717.714844 115.558594 717.714844 114.90625 C 717.714844 114.253906 717.066406 113.929688 716.089844 113.929688 C 715.761719 113.929688 715.4375 113.929688 715.109375 113.929688 L 715.109375 115.882813 Z M 715.4375 115.882813 "/>
</g>
</svg>
